# xmcd
#
# Track frame offsets:
# 182
# 28640
# 47167
# 66132
# 92492
# 115532
# 133952
# 161942
# 185225
# 205305
# 226422
# 252955
# 283607
# 300417
#
# Disc length: 4496 seconds
#
# Revision: 0
# Processed by: cddbd v1.5.2PL0 Copyright (c) Steve Scherf et al.
# Submitted via: Audion 3.0.2 (http://www.panic.com/audion/)
#
DISCID=c8118e0e
DTITLE=Pure Cuban Flavor - ¡Cuba Si!
DYEAR=1900
DGENRE=
TTITLE0=Descarga de Hoy
TTITLE1=Esto te Pone La Cabeza Mala
TTITLE2=To Bueno Ya
TTITLE3=Bemba 'e Cuchara
TTITLE4=Umelina
TTITLE5=Maraca's Tumbao
TTITLE6=El Trágico
TTITLE7=Que Mala Corriente
TTITLE8=El Reloj de Pastora
TTITLE9=Tumbao a Peruchín
TTITLE10=Caballo Grande Ande O No Ande
TTITLE11=A Chano Pozo
TTITLE12=Que Bueno Baila Usted
TTITLE13=Son Wambari
EXTD=
EXTT0=
EXTT1=
EXTT2=
EXTT3=
EXTT4=
EXTT5=
EXTT6=
EXTT7=
EXTT8=
EXTT9=
EXTT10=
EXTT11=
EXTT12=
EXTT13=
PLAYORDER=
